<?xml version="1.0" encoding="iso-8859-1"?>
<!-- Uploaded to: SVG Repo, www.svgrepo.com, Generator: SVG Repo Mixer Tools -->
<svg height="800px" width="800px" version="1.1" id="Layer_1" xmlns="http://www.w3.org/2000/svg" xmlns:xlink="http://www.w3.org/1999/xlink" 
	 viewBox="0 0 512 512" xml:space="preserve">
<circle style="fill:#FFDC64;" cx="256" cy="256" r="247.983"/>
<circle style="fill:#FFC850;" cx="256" cy="256" r="205.228"/>
<circle style="fill:#FFF082;" cx="256" cy="256" r="179.574"/>
<path d="M437.019,74.981C388.667,26.628,324.38,0,256,0S123.333,26.628,74.981,74.981C26.629,123.333,0,187.62,0,256
	s26.629,132.667,74.981,181.019C123.333,485.372,187.62,512,256,512s132.667-26.628,181.019-74.981
	C485.371,388.667,512,324.38,512,256S485.371,123.333,437.019,74.981z M425.683,425.682
	C380.358,471.005,320.097,495.967,256,495.967s-124.358-24.962-169.683-70.285C40.994,380.358,16.033,320.097,16.033,256
	S40.994,131.642,86.317,86.318C131.642,40.995,191.903,16.033,256,16.033s124.358,24.962,169.683,70.285
	c45.323,45.323,70.284,105.584,70.284,169.682S471.006,380.358,425.683,425.682z"/>
<path d="M256,42.756C138.416,42.756,42.756,138.416,42.756,256S138.416,469.244,256,469.244S469.244,373.584,469.244,256
	S373.584,42.756,256,42.756z M256,453.211c-108.743,0-197.211-88.469-197.211-197.211S147.257,58.789,256,58.789
	S453.211,147.258,453.211,256S364.743,453.211,256,453.211z"/>
<path d="M324.944,193.47c0,4.428,3.589,8.017,8.017,8.017c4.427,0,8.017-3.588,8.017-8.017c0-15.839-9.331-30.459-26.276-41.167
	c-9.613-6.075-21.1-10.477-33.584-13.003v-11.566c0-4.428-3.589-8.017-8.017-8.017s-8.017,3.588-8.017,8.017v9.411
	c-2.999-0.208-6.029-0.325-9.086-0.325c-3.056,0-6.086,0.117-9.086,0.325v-9.411c0-4.428-3.589-8.017-8.017-8.017
	s-8.017,3.588-8.017,8.017v11.566c-12.484,2.526-23.97,6.929-33.582,13.003c-16.943,10.708-26.274,25.329-26.274,41.167
	c0,34.353,26.338,50.77,59.858,62.801v99.964c-25.376-6.058-43.825-20.879-43.825-37.704c0-4.428-3.589-8.017-8.017-8.017
	s-8.017,3.588-8.017,8.017c0,15.839,9.331,30.459,26.276,41.167c9.613,6.075,21.099,10.477,33.583,13.003v11.566
	c0,4.428,3.589,8.017,8.017,8.017s8.017-3.588,8.017-8.017v-9.411c3,0.208,6.03,0.325,9.086,0.325c3.056,0,6.085-0.117,9.086-0.325
	v9.411c0,4.428,3.589,8.017,8.017,8.017c4.427,0,8.017-3.588,8.017-8.017v-11.567c12.484-2.526,23.971-6.929,33.584-13.003
	c16.943-10.708,26.274-25.328,26.274-41.167c0-34.353-26.338-50.771-59.858-62.801v-99.964
	C306.495,161.823,324.944,176.643,324.944,193.47z M187.056,193.47c0-16.825,18.449-31.646,43.825-37.704v83.392
	C201.785,227.99,187.056,215.595,187.056,193.47z M256,359.148c-3.074,0-6.104-0.138-9.086-0.38v-97.167
	c2.245,0.699,4.502,1.392,6.776,2.076c3.968,1.194,7.756,2.375,11.395,3.553v91.538C262.103,359.01,259.074,359.148,256,359.148z
	 M324.944,318.53c0,16.827-18.449,31.647-43.825,37.704v-83.393C310.215,284.01,324.944,296.405,324.944,318.53z M265.086,250.399
	c-2.245-0.699-4.501-1.392-6.775-2.076c-3.968-1.194-7.757-2.375-11.397-3.553v-91.537c2.982-0.244,6.011-0.381,9.086-0.381
	c3.074,0,6.103,0.138,9.086,0.381V250.399z"/>
</svg>